# xmcd
#
# Track frame offsets: 
#        150
#        22277
#        45772
#        63925
#        80725
#        102919
#        120505
#        135199
#        153061
#        171790
#        192901
#        211924
#        228338
#        249526
#        265390
#        286068
#        308381
#
# Disc length: 4202 seconds
#
# Revision: 0
# Processed by: cddbd v1.5.2PL0 Copyright (c) Steve Scherf et al.
# Submitted via: ExactAudioCopy v0.99pb4
#
DISCID=d5106811
DTITLE=Williams Wetsox - Vaganga, aba ned vagess'n [CD1)
DYEAR=2010
DGENRE=Blues
TTITLE0=K‰mpfer (in da Mannschaft)
TTITLE1=An's Meer
TTITLE2=Griaﬂ God, i bin de Autobahn
TTITLE3=Ganz cool
TTITLE4=Da Zug der fahrt
TTITLE5=S'zwoate Moi
TTITLE6=Da boarische Bluesmo
TTITLE7=Der Bach
TTITLE8=Sattl mein Gaul
TTITLE9=Motorradfahrersong
TTITLE10=Total verliebt
TTITLE11=Oan dog z'sp‰t
TTITLE12=Liabe Sonna
TTITLE13=Da hoibe simme Zug
TTITLE14=Hey Schaffner
TTITLE15=Mensch sei g'scheid
TTITLE16=Da Faschingsdienstogmorg'n
EXTD=
EXTT0=
EXTT1=
EXTT2=
EXTT3=
EXTT4=
EXTT5=
EXTT6=
EXTT7=
EXTT8=
EXTT9=
EXTT10=
EXTT11=
EXTT12=
EXTT13=
EXTT14=
EXTT15=
EXTT16=
PLAYORDER=
